<?xml version="1.0" encoding="utf-8"?>
<svg version="1.1" xmlns:xlink="http://www.w3.org/1999/xlink" width="13px" height="17px" xmlns="http://www.w3.org/2000/svg">
  <g transform="matrix(1 0 0 1 -344 -110 )">
    <path d="M 12.6936026936027 12.7070707070707  C 12.8978675645342 12.9741863075196  13 13.2985409652076  13 13.6801346801347  C 13 14.0617283950617  12.8978675645342 14.3860830527497  12.6936026936027 14.6531986531987  L 11.2053872053872 16.5993265993266  C 11.0011223344557 16.8664421997755  10.7530864197531 17  10.4612794612795 17  C 10.1694725028058 17  9.92143658810325 16.8664421997755  9.71717171717172 16.5993265993266  L 6.5 12.3922558922559  L 3.28282828282828 16.5993265993266  C 3.07856341189675 16.8664421997755  2.83052749719416 17  2.53872053872054 17  C 2.24691358024691 17  1.99887766554433 16.8664421997755  1.79461279461279 16.5993265993266  L 0.306397306397306 14.6531986531987  C 0.102132435465769 14.3860830527497  0 14.0617283950617  0 13.6801346801347  C 0 13.2985409652076  0.102132435465769 12.9741863075196  0.306397306397306 12.7070707070707  L 3.52356902356902 8.5  L 0.306397306397306 4.29292929292929  C 0.102132435465769 4.02581369248036  0 3.70145903479237  0 3.31986531986532  C 0 2.93827160493827  0.102132435465769 2.61391694725028  0.306397306397306 2.34680134680135  L 1.79461279461279 0.400673400673401  C 1.99887766554433 0.133557800224466  2.24691358024691 0  2.53872053872054 0  C 2.83052749719416 0  3.07856341189675 0.133557800224466  3.28282828282828 0.400673400673401  L 6.5 4.60774410774411  L 9.71717171717172 0.400673400673401  C 9.92143658810325 0.133557800224466  10.1694725028058 0  10.4612794612795 0  C 10.7530864197531 0  11.0011223344557 0.133557800224466  11.2053872053872 0.400673400673401  L 12.6936026936027 2.34680134680135  C 12.8978675645342 2.61391694725028  13 2.93827160493827  13 3.31986531986532  C 13 3.70145903479237  12.8978675645342 4.02581369248036  12.6936026936027 4.29292929292929  L 9.47643097643098 8.5  L 12.6936026936027 12.7070707070707  Z " fill-rule="nonzero" fill="#333333" stroke="none" transform="matrix(1 0 0 1 344 110 )" />
  </g>
</svg>