<?xml version="1.0" encoding="utf-8"?>
<svg version="1.1" xmlns:xlink="http://www.w3.org/1999/xlink" width="70px" height="70px" xmlns="http://www.w3.org/2000/svg">
  <g transform="matrix(1 0 0 1 -22 -14 )">
    <path d="M 22 14  L 92 14  L 92 84  L 22 84  L 22 14  " fill-rule="nonzero" fill="#cccccc" stroke="none" />
    <path d="M 27 19  L 87 19  L 87 79  L 27 79  L 27 19  " fill-rule="nonzero" fill="#ffffff" stroke="none" />
    <path d="M 63.65 35  C 60.71 35  58.4 32.69  58.4 29.75  C 58.4 26.81  60.71 24.5  63.65 24.5  C 66.59 24.5  68.9 26.81  68.9 29.75  C 68.9 32.69  66.59 35  63.65 35  " fill-rule="nonzero" fill="#cccccc" stroke="none" />
    <path d="M 29 77  L 29 46.2  L 43 32.2  L 62.6 43.4  L 73.8 40.6  L 85 43.4  L 85 77  L 29 77  " fill-rule="nonzero" fill="#169bd5" stroke="none" />
  </g>
</svg>